<svg width="32" height="29" viewBox="0 0 32 29" fill="none" xmlns="http://www.w3.org/2000/svg">
<path id="Vector" d="M17.8402 4.07491L17.8399 4.07526L16.6183 5.33406L16.0801 5.88868L15.5419 5.33406L14.3203 4.07526L14.3194 4.07437C11.4491 1.10688 6.83645 0.670841 3.77418 3.28024C0.214135 6.31894 0.024076 11.7832 3.21234 15.0797L17.8402 4.07491ZM17.8402 4.07491C20.7171 1.10651 25.3238 0.67111 28.3858 3.28008C31.9461 6.31878 32.136 11.7831 28.9418 15.0795L28.9416 15.0797L16.9429 27.469C16.9428 27.4691 16.9428 27.4691 16.9427 27.4692C16.4623 27.9648 15.6916 27.9648 15.2112 27.4692C15.2112 27.4691 15.2111 27.4691 15.2111 27.469L3.21265 15.08L17.8402 4.07491Z" stroke="white" stroke-width="1.5"/>
</svg>
