<svg width="28" height="25" viewBox="0 0 28 25" fill="none" xmlns="http://www.w3.org/2000/svg">
<path id="Vector" d="M24.3697 14.0734L24.3697 14.0734C24.3292 14.2563 24.1781 14.3652 24.027 14.3652H10.5619H9.64745L9.82641 15.262L10.127 16.7684L10.2474 17.3717H10.8625H23.1918C23.3964 17.3717 23.5926 17.5779 23.5346 17.8395L23.2812 18.9824L23.1542 19.555L23.6793 19.8162C24.2863 20.1182 24.7139 20.7621 24.7139 21.5177C24.7139 22.5769 23.8808 23.404 22.8916 23.404C21.9025 23.404 21.0694 22.5769 21.0694 21.5177C21.0694 20.9838 21.2829 20.5059 21.6235 20.1638L22.8976 18.8846H21.0921H11.4624H9.65678L10.931 20.1639C11.2717 20.5059 11.4852 20.9838 11.4852 21.5177C11.4852 22.5769 10.652 23.404 9.66291 23.404C8.67378 23.404 7.84065 22.5769 7.84065 21.5177C7.84065 20.8101 8.216 20.2003 8.76363 19.8775L9.22255 19.607L9.11829 19.0846L5.89158 2.91671L5.7712 2.31349H5.15609H1.94614C1.7688 2.31349 1.59375 2.16093 1.59375 1.93365V1.18041C1.59375 0.953125 1.7688 0.800568 1.94614 0.800568H6.65562C6.80925 0.800568 6.96275 0.913331 7.00014 1.10073L7.00015 1.10077L7.42117 3.21028L7.54156 3.81349H8.15667H26.1984C26.4029 3.81349 26.5991 4.01976 26.5411 4.28137L24.3697 14.0734Z" stroke="white" stroke-width="1.5"/>
</svg>
