<svg width="24" height="24" viewBox="0 0 24 24" fill="none" xmlns="http://www.w3.org/2000/svg">
<path id="Vector" d="M22.8877 14.3807L23.4245 13.8569L22.8877 14.3807C22.9042 14.3976 22.9166 14.4244 22.9166 14.4561V16.1509C22.9166 16.1826 22.9042 16.2094 22.8877 16.2263L23.4245 16.7501L22.8877 16.2263C22.8718 16.2426 22.8542 16.2483 22.8398 16.2483H1.34315C1.32882 16.2483 1.31124 16.2426 1.29533 16.2263C1.27882 16.2094 1.26636 16.1826 1.26636 16.1509V14.4561C1.26636 14.4244 1.27882 14.3976 1.29533 14.3807C1.31123 14.3644 1.32882 14.3587 1.34315 14.3587H22.8398C22.8542 14.3587 22.8718 14.3644 22.8877 14.3807ZM22.8877 7.60161L23.4245 7.07784L22.8877 7.60161C22.9042 7.61854 22.9166 7.64533 22.9166 7.67704V9.37181C22.9166 9.40351 22.9042 9.4303 22.8877 9.44723L23.4245 9.971L22.8877 9.44723C22.8718 9.46353 22.8542 9.46919 22.8398 9.46919H1.34315C1.32882 9.46919 1.31123 9.46353 1.29533 9.44723C1.27882 9.4303 1.26636 9.40351 1.26636 9.37181V7.67704C1.26636 7.64534 1.27882 7.61854 1.29533 7.60161C1.31124 7.58531 1.32882 7.57965 1.34315 7.57965H22.8398C22.8542 7.57965 22.8718 7.58531 22.8877 7.60161ZM22.8877 0.822529L23.4245 0.298761L22.8877 0.822532C22.9042 0.839454 22.9166 0.866249 22.9166 0.897953V2.59272C22.9166 2.62443 22.9042 2.65122 22.8877 2.66814L23.4245 3.19192L22.8877 2.66815C22.8718 2.68445 22.8542 2.69011 22.8398 2.69011H1.34315C1.32882 2.69011 1.31124 2.68445 1.29533 2.66815C1.27882 2.65122 1.26636 2.62442 1.26636 2.59272V0.897953C1.26636 0.866253 1.27882 0.839455 1.29533 0.822529C1.31124 0.80623 1.32882 0.800568 1.34315 0.800568H22.8398C22.8542 0.800568 22.8718 0.80623 22.8877 0.822529ZM1.34315 21.1378H22.8398C22.8542 21.1378 22.8718 21.1435 22.8877 21.1598L23.4245 20.636L22.8877 21.1598C22.9042 21.1767 22.9166 21.2035 22.9166 21.2352V22.93C22.9166 22.9617 22.9042 22.9885 22.8877 23.0054C22.8718 23.0217 22.8542 23.0274 22.8398 23.0274H1.34315C1.32882 23.0274 1.31123 23.0217 1.29533 23.0054C1.27882 22.9885 1.26636 22.9617 1.26636 22.93V21.2352C1.26636 21.2035 1.27882 21.1767 1.29533 21.1598C1.31124 21.1435 1.32882 21.1378 1.34315 21.1378Z" stroke="white" stroke-width="1.5"/>
</svg>
