<svg width="24" height="28" viewBox="0 0 24 28" fill="none" xmlns="http://www.w3.org/2000/svg">
<path id="Vector" d="M18.1124 7.57553C18.1124 10.9232 15.4699 13.6046 12.248 13.6046C9.02609 13.6046 6.38363 10.9232 6.38363 7.57553C6.38363 4.22786 9.02609 1.54645 12.248 1.54645C15.4699 1.54645 18.1124 4.22786 18.1124 7.57553ZM12.248 17.6468C13.6466 17.6468 14.9772 17.3401 16.1793 16.7994H16.8781C20.2808 16.7994 23.0731 19.6344 23.0731 23.1674V25.3706C23.0731 26.3774 22.2806 27.1628 21.3428 27.1628H3.15324C2.21536 27.1628 1.42285 26.3774 1.42285 25.3706V23.1674C1.42285 19.6344 4.21517 16.7994 7.61794 16.7994H8.31723C9.52259 17.3397 10.8484 17.6468 12.248 17.6468Z" stroke="white" stroke-width="1.5"/>
</svg>
