<svg width="27" height="24" viewBox="0 0 27 24" fill="none" xmlns="http://www.w3.org/2000/svg">
<path id="Vector" d="M14.9632 2.90853L14.9629 2.90889L13.9449 3.98401L13.4003 4.55917L12.8557 3.98401L11.8377 2.90889L11.8368 2.90799C9.48477 0.415737 5.72495 0.0615739 3.23327 2.23771L14.9632 2.90853ZM14.9632 2.90853C17.3208 0.41534 21.0757 0.0618446 23.5671 2.23759C26.486 4.79108 26.6444 9.395 24.0222 12.1684L24.0221 12.1686M14.9632 2.90853L24.0221 12.1686M24.0221 12.1686L14.0231 22.7501C14.0231 22.7502 14.023 22.7502 14.023 22.7503C13.673 23.1203 13.1224 23.1203 12.7724 22.7503C12.7723 22.7502 12.7723 22.7502 12.7722 22.7501L2.77362 12.1689M24.0221 12.1686L2.77362 12.1689M2.77362 12.1689L2.77331 12.1686C0.156142 9.39514 0.314555 4.79132 3.23314 2.23783L2.77362 12.1689Z" stroke="white" stroke-width="1.5"/>
</svg>
